<svg width="676" height="125" viewBox="0 0 676 125" fill="none" xmlns="http://www.w3.org/2000/svg">
<path d="M71.2828 59.4646C81.9251 64.5324 87.3308 73.4854 87.3308 85.817C87.3308 96.2904 83.2765 106.257 76.5195 111.832C65.7083 121.122 57.5998 121.967 38.8491 121.967H2.1922C1.34757 121.967 0.84079 121.291 0.84079 120.616V5.23943C0.84079 4.3948 1.34757 3.7191 2.1922 3.7191H43.4101C55.7417 3.7191 66.384 6.59083 72.8032 11.8275C79.5602 16.8953 83.1076 25.0037 83.1076 34.9704C83.1076 43.2477 78.7156 51.3562 71.1139 57.0996C70.2693 57.7753 70.4382 59.1267 71.2828 59.4646ZM29.2203 32.2675V49.6669C29.2203 50.3426 29.896 51.0183 30.5717 51.0183H40.0316C41.8897 51.0183 45.6061 51.0183 48.8157 49.8358C53.0388 48.1466 55.2349 44.937 55.2349 40.376C55.2349 36.1528 53.2078 33.2811 49.1535 31.9297C46.1129 30.7472 42.2276 30.7472 40.0316 30.7472H30.7406C29.896 30.7472 29.2203 31.4229 29.2203 32.2675ZM52.3631 93.7565C56.5863 92.2362 58.7823 88.8577 58.7823 84.1277C58.7823 79.7357 56.7552 76.8639 52.8699 75.3436C49.6603 73.9922 45.775 73.9922 43.579 73.9922H30.5717C29.7271 73.9922 29.0514 74.6679 29.0514 75.5125V93.7565C29.0514 94.6011 29.7271 95.1079 30.5717 95.1079H43.579C45.4372 95.1079 49.3225 95.1079 52.3631 93.7565Z" fill="#404040"/>
<path d="M149.486 0.340576C183.102 0.340576 210.299 28.2133 210.299 62.5052C210.299 96.7972 183.102 124.67 149.486 124.67C116.039 124.67 88.8419 96.7972 88.8419 62.5052C88.8419 28.2133 116.039 0.340576 149.486 0.340576ZM149.486 96.4593C167.899 96.4593 182.765 81.256 182.765 62.5052C182.765 43.7545 167.899 28.5512 149.486 28.5512C131.242 28.5512 116.208 43.7545 116.208 62.5052C116.208 81.256 131.242 96.4593 149.486 96.4593Z" fill="#404040"/>
<path d="M271.726 0.340576C305.343 0.340576 332.54 28.2133 332.54 62.5052C332.54 96.7972 305.343 124.67 271.726 124.67C238.279 124.67 211.082 96.7972 211.082 62.5052C211.082 28.2133 238.279 0.340576 271.726 0.340576ZM271.726 96.4593C290.139 96.4593 305.005 81.256 305.005 62.5052C305.005 43.7545 290.139 28.5512 271.726 28.5512C253.482 28.5512 238.448 43.7545 238.448 62.5052C238.448 81.256 253.482 96.4593 271.726 96.4593Z" fill="#404040"/>
<path d="M407.713 94.4322C408.558 94.4322 409.233 95.1079 409.233 95.9525L407.037 120.278C407.037 121.122 406.362 121.798 405.686 121.798H331.865C330.852 121.798 330.176 120.616 330.683 119.771L338.622 101.696L367.002 32.6054C367.509 31.7608 366.833 30.5783 365.819 30.5783H331.696C330.852 30.5783 330.345 30.0715 330.345 29.2269L332.372 4.90157C332.372 4.05694 333.048 3.38124 333.892 3.38124H407.882C408.895 3.38124 409.571 4.3948 409.233 5.40835L400.787 28.0444L375.279 92.574C374.941 93.4187 375.617 94.4322 376.631 94.4322H407.713Z" fill="#404040"/>
<path d="M442.3 3.55016C443.145 3.55016 443.821 4.22587 443.821 4.90157V120.278C443.821 121.122 443.145 121.798 442.3 121.798H415.103C414.259 121.798 413.752 121.122 413.752 120.278V4.90157C413.752 4.22587 414.259 3.55016 415.103 3.55016H442.3Z" fill="#404040"/>
<path d="M548.473 3.38124C549.149 3.38124 549.824 4.05694 549.824 4.90157V120.278C549.824 121.122 549.149 121.629 548.473 121.629H524.485C523.979 121.629 523.641 121.46 523.303 121.122L483.099 64.8702C482.423 63.6877 480.565 64.3634 480.565 65.7148L481.072 120.278C481.072 121.122 480.565 121.629 479.72 121.629H453.706C452.861 121.629 452.354 121.122 452.354 120.278V4.90157C452.354 4.05694 452.861 3.38124 453.706 3.38124H477.355C477.862 3.38124 478.369 3.7191 478.538 4.05694L518.911 64.5324C519.756 65.7148 521.614 65.2081 521.445 63.8567L520.938 4.90157C520.938 4.05694 521.614 3.38124 522.458 3.38124H548.473Z" fill="#404040"/>
<path d="M675.662 56.7618C675.831 58.2821 676 60.9849 676 62.8431C676 68.9244 675.155 75.0058 673.466 80.9182C671.439 87.6752 668.398 93.9254 664.175 99.6689C658.77 107.271 651.337 113.69 643.059 118.082C634.444 122.643 624.984 125.008 615.187 125.008C581.739 125.008 554.542 97.135 554.542 62.8431C554.542 28.5512 581.739 0.678433 615.187 0.678433C624.984 0.678433 634.444 2.87447 643.059 7.60439C650.323 11.3207 656.911 16.7264 662.148 23.1456C662.824 24.1591 662.655 25.3416 661.81 26.1862L642.215 40.7138C641.708 41.0517 640.694 41.0517 640.188 40.376C633.937 33.1122 624.815 28.889 615.187 28.889C596.943 28.889 581.908 44.0923 581.908 62.8431C581.908 81.5939 596.943 96.7972 615.187 96.7972C625.66 96.7972 635.458 91.8983 641.708 83.2831C642.384 82.2696 641.708 81.0871 640.526 81.0871H612.146C611.301 81.0871 610.626 80.4114 610.626 79.5667L610.795 56.7618C610.795 56.0861 611.47 55.4104 612.315 55.4104H674.142C674.817 55.4104 675.493 55.9171 675.662 56.7618Z" fill="#404040"/>
</svg>
